<svg xmlns="http://www.w3.org/2000/svg" width="60" height="70" viewBox="0 0 60 70">
  <path fill="#FFF" d="M227.846154,0.00427381508 C220.199134,0.00427381508 214,6.27190463 214,14.0034191 L214,18.6698008 C214,26.4013152 220.199134,32.668946 227.846154,32.668946 C235.493173,32.668946 241.692308,26.4013152 241.692308,18.6698008 L241.692308,14.0034191 C241.692308,6.27190463 235.493173,0.00427381508 227.846154,0.00427381508 Z M232.461538,18.6698008 C232.461538,21.2469723 230.39516,23.3361825 227.846154,23.3361825 C225.297147,23.3361825 223.230769,21.2469723 223.230769,18.6698008 L223.230769,14.0034191 C223.230769,11.4262476 225.297147,9.33703731 227.846154,9.33703731 C230.39516,9.33703731 232.461538,11.4262476 232.461538,14.0034191 L232.461538,18.6698008 Z M260.153846,37.3353278 C252.506827,37.3353278 246.307692,43.6029586 246.307692,51.334473 L246.307692,56.0008548 C246.307692,63.7323692 252.506827,70 260.153846,70 C267.800866,70 274,63.7323692 274,56.0008548 L274,51.334473 C274,43.6029586 267.800866,37.3353278 260.153846,37.3353278 Z M264.769231,56.0008548 C264.769231,58.5780262 262.702853,60.6672365 260.153846,60.6672365 C257.60484,60.6672365 255.538462,58.5780262 255.538462,56.0008548 L255.538462,51.334473 C255.538462,48.7573015 257.60484,46.6680913 260.153846,46.6680913 C262.702853,46.6680913 264.769231,48.7573015 264.769231,51.334473 L264.769231,56.0008548 Z M254.684615,11.4369091 L255.538462,11.1335943 L255.538462,28.0025643 C255.538462,30.5797358 257.60484,32.668946 260.153846,32.668946 C262.702853,32.668946 264.769231,30.5797358 264.769231,28.0025643 L264.769231,4.67065556 C264.770578,3.17099513 264.058969,1.76206298 262.856632,0.883856846 C261.654294,0.00565071468 260.107761,-0.234800948 258.7,0.237592902 L251.776923,2.57078378 C250.210451,3.09593213 249.040072,4.42612619 248.706658,6.06029472 C248.373243,7.69446326 248.927446,9.3843372 250.160504,10.4933574 C251.393562,11.6023776 253.118143,11.9620574 254.684615,11.4369091 Z M230.546154,38.2219403 C229.34174,37.3502041 227.796687,37.1158854 226.392308,37.5919788 L219.469231,39.9251696 C217.819851,40.3794976 216.553944,41.7183567 216.179273,43.4047196 C215.804603,45.0910826 216.382545,46.8487048 217.681283,47.9725898 C218.980021,49.0964748 220.786806,49.4025181 222.376923,48.7679631 L223.230769,48.4646482 L223.230769,65.3336183 C223.230769,67.9107897 225.297147,70 227.846154,70 C230.39516,70 232.461538,67.9107897 232.461538,65.3336183 L232.461538,42.0017095 C232.460007,40.5040203 231.747556,39.0980882 230.546154,38.2219403 L230.546154,38.2219403 Z" transform="translate(-214)"/>
</svg>
