<svg xmlns="http://www.w3.org/2000/svg" width="70" height="65" viewBox="0 0 70 65">
  <path fill="#FFF" d="M121.21,9.96428571 L177,9.96428571 L177,7.64285714 C177,5.07867795 174.910662,3 172.333333,3 L121,3 C113.268014,3 107,9.23603384 107,16.9285714 L107,54.0714286 C107,61.7639662 113.268014,68 121,68 L172.333333,68 C174.910662,68 177,65.9213221 177,63.3571429 L177,23.8928571 C177,21.3286779 174.910662,19.25 172.333333,19.25 L121.21,19.25 C119.936355,19.3070801 118.694691,18.8432398 117.773559,17.9662719 C116.852428,17.089304 116.332042,15.875574 116.333333,14.6071429 C116.332042,13.3387117 116.852428,12.1249817 117.773559,11.2480138 C118.694691,10.3710459 119.936355,9.90720563 121.21,9.96428571 Z M130.753333,27.2589286 C133.559578,27.2589579 135.835669,29.5200165 135.839941,32.3119402 C135.844212,35.1038639 133.575049,37.3718053 130.768818,37.3803335 C127.962586,37.3888618 125.679539,35.1347547 125.666667,32.3428571 C125.66046,30.9966546 126.193633,29.7034703 127.148242,28.7493755 C128.102851,27.7952808 129.400213,27.2589144 130.753333,27.2589286 L130.753333,27.2589286 Z M140.903333,46.7125 C145.896667,36.1267857 154.436667,26.7946429 162.976667,58.6910714 L125.666667,58.6910714 C125.666667,58.6910714 132.666667,32.2964286 140.903333,46.7357143 L140.903333,46.7125 Z" transform="translate(-107 -3)"/>
</svg>
